<svg xmlns="http://www.w3.org/2000/svg" xmlns:xlink="http://www.w3.org/1999/xlink" style="display: none">
	<defs>
		<g id="brick">
			<title>Brick Template</title>
			<path id="left" d="M5.501 96.76v-48.168l65.027 47.451v48.166z" />
			<path id="right" d="M144.632 101.602v-48.168l-74.255 42.402v48.332z" />
			<path id="up" d="M5.369 48.659l73.988-42.868 65.182 47.823-74.27 42.416z" />
			<symbol id="front">
				<path d="M0 0v9h.023c.26 4.383 6.548 7.891 14.286 7.891 7.738 0 14.026-3.508 14.286-7.891h.023v-9h-28.618z" />
			</symbol>
			<symbol id="back">
				<path d="M0 0v16.605c5.979-.897 10.429-3.939 10.646-7.606h.023v-9l-10.669.001z" />
			</symbol>
			<symbol id="top">
				<path d="M14.301 0c7.898 0 14.301 4.029 14.301 8.996 0 4.967-6.402 8.995-14.301 8.995-7.897 0-14.299-4.027-14.299-8.995 0-4.968 6.401-8.996 14.299-8.996z" />
			</symbol>
		</g>
		<g id="green">
			<use xlink:href="#left" style="fill: #9c3" />
			<use xlink:href="#right" style="fill: #86b32d" />
			<use xlink:href="#up" style="fill: #a8db43" />
			<g fill="#9c3">
				<use xlink:href="#front" x="25.471" y="41.795" />
				<use xlink:href="#front" x="59.471" y="65.795" />
				<use xlink:href="#front" x="96.471" y="43.795" />
				<use xlink:href="#front" x="62.471" y="19.795" />
			</g>
			<g fill="#86b331">
				<use xlink:href="#back" x="80.421" y="19.795" />
				<use xlink:href="#back" x="43.421" y="41.937" />
				<use xlink:href="#back" x="114.421" y="43.796" />
				<use xlink:href="#back" x="77.421" y="65.794" />
			</g>
			<g fill="#b8e562">
				<use xlink:href="#top" x="62.49" y="10.799" />
				<use xlink:href="#top" x="96.46" y="34.799" />
				<use xlink:href="#top" x="25.489" y="32.799" />
				<use xlink:href="#top" x="59.091" y="56.799" />
			</g>
		</g>
		<g id="red_blue">
			<use xlink:href="#left" style="fill: #3272ee" />
			<use xlink:href="#right" style="fill: #285bb4" />
			<use xlink:href="#up" style="fill: #4283f2" />
			<g fill="#c53231">
				<use xlink:href="#front" x="25.471" y="41.795" />
				<use xlink:href="#front" x="59.471" y="65.795" />
				<use xlink:href="#front" x="96.471" y="43.795" />
				<use xlink:href="#front" x="62.471" y="19.795" />
			</g>
			<g fill="#ac3231">
				<use xlink:href="#back" x="80.421" y="19.795" />
				<use xlink:href="#back" x="43.421" y="41.937" />
				<use xlink:href="#back" x="114.421" y="43.796" />
				<use xlink:href="#back" x="77.421" y="65.794" />
			</g>
			<g fill="#eb5953">
				<use xlink:href="#top" x="62.49" y="10.799" />
				<use xlink:href="#top" x="96.46" y="34.799" />
				<use xlink:href="#top" x="25.489" y="32.799" />
				<use xlink:href="#top" x="59.091" y="56.799" />
			</g>
		</g>
		<g id="yellow">
			<use xlink:href="#left" style="fill: #f2ba24" />
			<use xlink:href="#right" style="fill: #e5aa0d" />
			<use xlink:href="#up" style="fill: #f5c034" />
			<g fill="#f1b939">
				<use xlink:href="#front" x="25.471" y="41.795" />
				<use xlink:href="#front" x="59.471" y="65.795" />
				<use xlink:href="#front" x="96.471" y="43.795" />
				<use xlink:href="#front" x="62.471" y="19.795" />
			</g>
			<g fill="#e4a92b">
				<use xlink:href="#back" x="80.421" y="19.795" />
				<use xlink:href="#back" x="43.421" y="41.937" />
				<use xlink:href="#back" x="114.421" y="43.796" />
				<use xlink:href="#back" x="77.421" y="65.794" />
			</g>
			<g fill="#f9d064">
				<use xlink:href="#top" x="62.49" y="10.799" />
				<use xlink:href="#top" x="96.46" y="34.799" />
				<use xlink:href="#top" x="25.489" y="32.799" />
				<use xlink:href="#top" x="59.091" y="56.799" />
			</g>
		</g>
		<g id="purple">
			<use xlink:href="#left" style="fill: #be9bd8" />
			<use xlink:href="#right" style="fill: #997baf" />
			<use xlink:href="#up" style="fill: #cda8e8" />
			<g fill="#be9bd8">
				<use xlink:href="#front" x="25.471" y="41.795" />
				<use xlink:href="#front" x="59.471" y="65.795" />
				<use xlink:href="#front" x="96.471" y="43.795" />
				<use xlink:href="#front" x="62.471" y="19.795" />
			</g>
			<g fill="#997baf">
				<use xlink:href="#back" x="80.421" y="19.795" />
				<use xlink:href="#back" x="43.421" y="41.937" />
				<use xlink:href="#back" x="114.421" y="43.796" />
				<use xlink:href="#back" x="77.421" y="65.794" />
			</g>
			<g fill="#d9b7f2">
				<use xlink:href="#top" x="62.49" y="10.799" />
				<use xlink:href="#top" x="96.46" y="34.799" />
				<use xlink:href="#top" x="25.489" y="32.799" />
				<use xlink:href="#top" x="59.091" y="56.799" />
			</g>
		</g>
		<g id="blue">
			<use xlink:href="#left" style="fill: #3776ea" />
			<use xlink:href="#right" style="fill: #2b5db1" />
			<use xlink:href="#up" style="fill: #4686ef" />
			<g fill="#629bfb">
				<use xlink:href="#front" x="25.471" y="41.795" />
				<use xlink:href="#front" x="59.471" y="65.795" />
				<use xlink:href="#front" x="96.471" y="43.795" />
				<use xlink:href="#front" x="62.471" y="19.795" />
			</g>
			<g fill="#3b79e7">
				<use xlink:href="#back" x="80.421" y="19.795" />
				<use xlink:href="#back" x="43.421" y="41.937" />
				<use xlink:href="#back" x="114.421" y="43.796" />
				<use xlink:href="#back" x="77.421" y="65.794" />
			</g>
			<g fill="#5794fb">
				<use xlink:href="#top" x="62.49" y="10.799" />
				<use xlink:href="#top" x="96.46" y="34.799" />
				<use xlink:href="#top" x="25.489" y="32.799" />
				<use xlink:href="#top" x="59.091" y="56.799" />
			</g>
		</g>
		<g id="red">
			<use xlink:href="#left" style="fill: #eb5448" />
			<use xlink:href="#right" style="fill: #bd3d33" />
			<use xlink:href="#up" style="fill: #de483c" />
			<g fill="#c53231">
				<use xlink:href="#front" x="25.471" y="41.795" />
				<use xlink:href="#front" x="59.471" y="65.795" />
				<use xlink:href="#front" x="96.471" y="43.795" />
				<use xlink:href="#front" x="62.471" y="19.795" />
			</g>
			<g fill="#ac3231">
				<use xlink:href="#back" x="80.421" y="19.795" />
				<use xlink:href="#back" x="43.421" y="41.937" />
				<use xlink:href="#back" x="114.421" y="43.796" />
				<use xlink:href="#back" x="77.421" y="65.794" />
			</g>
			<g fill="#eb5953">
				<use xlink:href="#top" x="62.49" y="10.799" />
				<use xlink:href="#top" x="96.46" y="34.799" />
				<use xlink:href="#top" x="25.489" y="32.799" />
				<use xlink:href="#top" x="59.091" y="56.799" />
			</g>
		</g>
		<g id="green_yellow">
			<use xlink:href="#left" style="fill: #f2ba24" />
			<use xlink:href="#right" style="fill: #e5aa0d" />
			<use xlink:href="#up" style="fill: #f5c034" />
			<g fill="#9c3">
				<use xlink:href="#front" x="25.471" y="41.795" />
				<use xlink:href="#front" x="59.471" y="65.795" />
				<use xlink:href="#front" x="96.471" y="43.795" />
				<use xlink:href="#front" x="62.471" y="19.795" />
			</g>
			<g fill="#86b331">
				<use xlink:href="#back" x="80.421" y="19.795" />
				<use xlink:href="#back" x="43.421" y="41.937" />
				<use xlink:href="#back" x="114.421" y="43.796" />
				<use xlink:href="#back" x="77.421" y="65.794" />
			</g>
			<g fill="#b8e562">
				<use xlink:href="#top" x="62.49" y="10.799" />
				<use xlink:href="#top" x="96.46" y="34.799" />
				<use xlink:href="#top" x="25.489" y="32.799" />
				<use xlink:href="#top" x="59.091" y="56.799" />
			</g>
		</g>
	</defs>
</svg>