<svg xmlns="http://www.w3.org/2000/svg" xmlns:xlink="http://www.w3.org/1999/xlink" width="57.042" height="73.331" viewBox="273.023 346.915 57.042 73.331" enable-background="new 273.023 346.915 57.042 73.331"><path fill="#6BA0F6" d="M330.026 390.416l-.022-.391c-.021-.355-.046-.711-.08-1.066l-.022-.219c-2.236-22.137-28.357-41.825-28.357-41.825s-26.119 19.688-28.361 41.825l-.021.219c-.031.355-.058.711-.08 1.066l-.023.391c-.02.437-.031.871-.031 1.309 0 15.752 12.768 28.521 28.518 28.521s28.521-12.771 28.521-28.521c-.006-.438-.019-.873-.042-1.309z"/><path fill="#537FC9" d="M283.342 365.505c-5.011 6.758-9.312 14.818-10.165 23.235l-.022.219c-.031.355-.059.711-.077 1.066l-.026.391c-.017.437-.028.871-.028 1.309 0 15.752 12.768 28.521 28.515 28.521 9.928 0 18.669-5.082 23.774-12.771l-41.971-41.97"/><path fill="#AECAF4" d="M303.314 353.025c7.507 7.673 16.821 19.562 18.118 32.285l.013.218c.034.347.058.688.08 1.046l.021.379c.022.424.034.858.034 1.284 0 14.079-10.395 25.722-23.934 27.685 1.264.195 2.55.287 3.863.287 13.886 0 25.141-11.256 25.141-25.138 0-.379-.013-.771-.035-1.159l-.021-.332c-.013-.322-.034-.632-.068-.941l-.012-.195c-1.641-16.185-17.746-30.873-23.2-35.419"/><defs><path id="a" d="M330.026 390.416l-.022-.391c-.021-.355-.046-.711-.08-1.066l-.022-.219c-2.236-22.137-28.357-41.825-28.357-41.825s-26.119 19.688-28.361 41.825l-.021.219c-.031.355-.058.711-.08 1.066l-.023.391c-.02.437-.031.871-.031 1.309 0 15.752 12.768 28.521 28.518 28.521s28.521-12.771 28.521-28.521c-.006-.438-.019-.873-.042-1.309z"/></defs><clipPath><use xlink:href="#a" overflow="visible"/></clipPath></svg>