<svg xmlns="http://www.w3.org/2000/svg" xmlns:xlink="http://www.w3.org/1999/xlink" style="display: none">
	<defs>
		<g id="brick">
			<title>Brick Template</title>
			<path id="left" d="M5.501 96.76v-48.168l65.027 47.451v48.166z" />
			<path id="right" d="M144.632 101.602v-48.168l-74.255 42.402v48.332z" />
			<path id="up" d="M5.369 48.659l73.988-42.868 65.182 47.823-74.27 42.416z" />
			<path id="front" d="M0 0v9h.023c.26 4.383 6.548 7.891 14.286 7.891 7.738 0 14.026-3.508 14.286-7.891h.023v-9h-28.618z" />
			<path id="back" d="M0 0v16.605c5.979-.897 10.429-3.939 10.646-7.606h.023v-9l-10.669.001z" />
			<path id="top" d="M14.301 0c7.898 0 14.301 4.029 14.301 8.996 0 4.967-6.402 8.995-14.301 8.995-7.897 0-14.299-4.027-14.299-8.995 0-4.968 6.401-8.996 14.299-8.996z" />
			<symbol id="studFront">
				<use xlink:href="#front" x="25.471" y="41.795" />
				<use xlink:href="#front" x="59.471" y="65.795" />
				<use xlink:href="#front" x="96.471" y="43.795" />
				<use xlink:href="#front" x="62.471" y="19.795" />
			</symbol>
			<symbol id="studBack">
				<use xlink:href="#back" x="80.421" y="19.795" />
				<use xlink:href="#back" x="43.421" y="41.937" />
				<use xlink:href="#back" x="114.421" y="43.796" />
				<use xlink:href="#back" x="77.421" y="65.794" />
			</symbol>
			<symbol id="studTop">
				<use xlink:href="#top" x="62.49" y="10.799" />
				<use xlink:href="#top" x="96.46" y="34.799" />
				<use xlink:href="#top" x="25.489" y="32.799" />
				<use xlink:href="#top" x="59.091" y="56.799" />
			</symbol>
		</g>
		<g id="green">
			<use xlink:href="#left" fill="#9c3" />
			<use xlink:href="#right" fill="#86b32d" />
			<use xlink:href="#up" fill="#a8db43" />
			<use xlink:href="#studFront" fill="#9c3" />
			<use xlink:href="#studBack" fill="#86b331" />
			<use xlink:href="#studTop" fill="#b8e562" />
		</g>
		<g id="red_blue">
			<use xlink:href="#left" fill="#3272ee" />
			<use xlink:href="#right" fill="#285bb4" />
			<use xlink:href="#up" fill="#4283f2" />
			<use xlink:href="#studFront" fill="#c53231" />
			<use xlink:href="#studBack" fill="#ac3231" />
			<use xlink:href="#studTop" fill="#eb5953" />
		</g>
		<g id="yellow">
			<use xlink:href="#left" fill="#f2ba24" />
			<use xlink:href="#right" fill="#e5aa0d" />
			<use xlink:href="#up" fill="#f5c034" />
			<use xlink:href="#studFront" fill="#f1b939" />
			<use xlink:href="#studBack" fill="#e4a92b" />
			<use xlink:href="#studTop" fill="#f9d064" />
		</g>
		<g id="purple">
			<use xlink:href="#left" fill="#be9bd8" />
			<use xlink:href="#right" fill="#997baf" />
			<use xlink:href="#up" fill="#cda8e8" />
			<use xlink:href="#studFront" fill="#be9bd8" />
			<use xlink:href="#studBack" fill="#997baf" />
			<use xlink:href="#studTop" fill="#d9b7f2" />
		</g>
		<g id="blue">
			<use xlink:href="#left" fill="#3776ea" />
			<use xlink:href="#right" fill="#2b5db1" />
			<use xlink:href="#up" fill="#4686ef" />
			<use xlink:href="#studFront" fill="#629bfb" />
			<use xlink:href="#studBack" fill="#3b79e7" />
			<use xlink:href="#studTop" fill="#5794fb" />
		</g>
		<g id="red">
			<use xlink:href="#left" fill="#eb5448" />
			<use xlink:href="#right" fill="#bd3d33" />
			<use xlink:href="#up" fill="#de483c" />
			<use xlink:href="#studFront" fill="#c53231" />
			<use xlink:href="#studBack" fill="#ac3231" />
			<use xlink:href="#studTop" fill="#eb5953" />
		</g>
		<g id="green_yellow">
			<use xlink:href="#left" fill="#f2ba24" />
			<use xlink:href="#right" fill="#e5aa0d" />
			<use xlink:href="#up" fill="#f5c034" />
			<use xlink:href="#studFront" fill="#9c3" />
			<use xlink:href="#studBack" fill="#86b331" />
			<use xlink:href="#studTop" fill="#b8e562" />
		</g>
		<g id="drop" width="57.842" height="73.331">
			<path fill="#6BA0F6" d="M57.503 43.501l-.022-.391c-.021-.355-.046-.711-.08-1.066l-.022-.219c-2.236-22.137-28.357-41.825-28.357-41.825s-26.119 19.688-28.361 41.825l-.021.219c-.031.355-.058.711-.08 1.066l-.023.391c-.02.437-.031.871-.031 1.309 0 15.752 12.768 28.521 28.518 28.521s28.521-12.771 28.521-28.521c-.006-.438-.019-.873-.042-1.309z" />
			<path fill="#537FC9" d="M10.819 18.59c-5.011 6.758-9.312 14.818-10.165 23.235l-.022.219c-.031.355-.059.711-.077 1.066l-.026.391c-.017.437-.028.871-.028 1.309 0 15.752 12.768 28.521 28.515 28.521 9.928 0 18.669-5.082 23.774-12.771l-41.971-41.97" />
			<path fill="#AECAF4" d="M30.289 6.11c7.507 7.673 16.821 19.562 18.118 32.285l.013.218c.034.347.058.688.08 1.046l.021.379c.022.424.034.858.034 1.284 0 14.079-10.395 25.722-23.934 27.685 1.264.195 2.55.287 3.863.287 13.886 0 25.141-11.256 25.141-25.138 0-.379-.013-.771-.035-1.159l-.021-.332c-.013-.322-.034-.632-.068-.941l-.012-.195c-1.641-16.185-17.746-30.873-23.2-35.419" />
		</g>
		<symbol id="feed" viewBox="0 0 256 256">
			<rect width="256" height="256" rx="55" ry="55" fill="#CC5D15" />
			<rect width="246" height="246" rx="50" ry="50" x="5" y="5" fill="#F49C52" />
			<circle cx="68" cy="189" r="24" fill="#FFF" />
			<path d="M160 213h-34a82 82 0 0 0-82-82v-34a116 116 0 0 1 116 116zM184 213a140 140 0 0 0-140-140v-35a175 175 0 0 1 175 175z" fill="#FFF" />
		</symbol>
		<symbol id="line" viewBox="0 0 150 300">
			<path fill="#9fa0a0" d="m 75,197.5 c 4.1,0 7.4,1.6 7.4,3.6 0,2 -3.3,3.6 -7.4,3.6 -4.1,0 -7.4,-1.6 -7.4,-3.6 0,-2 3.3,-3.6 7.4,-3.6 l 0,0 z" />
			<polygon fill="#5c5c5c" points="68.8,201.0 68.8,183.5 81.1,183.5 81.1,201.0 68.8,201.0" />
			<path fill="#5c5c5c" d="m 74.9,204 c -3.4,0 -6.1,-1.4 -6.1,-3.1 0,-1.7 2.7,-3.1 6.1,-3.1 3.4,0 6.1,1.4 6.1,3.1 0,1.7 -2.7,3.1 -6.1,3.1 l 0,0 z" />
			<path fill="#7d7d7d" d="m 68.2,196.8 v 1.8 c 0,0 7.7,1.6 13.3,-2 v -2 c 0,0 -4.2,3.1 -13.3,2.2 l 0,0 z" />
			<path fill="#7d7d7d" d="m 68.2,200.2 v 1.8 c 0,0 7.7,1.6 13.3,-2 v -2 c 0,0 -4.2,3.2 -13.3,2.2 l 0,0 z" />
			<path fill="#5c5c5c" d="m 75,197.3 c -9.6,0 -17.5,-4.9 -17.5,-10.9 0,-6 7.8,-10.8 17.5,-10.8 9.6,0 17.5,4.9 17.5,10.8 0,6 -7.9,10.9 -17.5,10.9 l 0,0 z" />
			<polygon fill="#5c5c5c" points="57.5,186.6 57.5,176.9 92.4,176.9 92.4,186.6 57.5,186.6" />
			<path fill="#848484" d="m 75,167.1 c 9.6,0 17.5,4.9 17.5,10.8 0,6 -7.8,10.9 -17.5,10.9 -9.6,0 -17.5,-4.9 -17.5,-10.9 0,-6 7.9,-10.8 17.5,-10.8 l 0,0 z" />
			<path fill="#5d5d5d" d="m 75.1,179.9 c -2.7,0 -4.9,-1.4 -4.9,-3.1 0,-1.7 2.2,-3.1 4.9,-3.1 2.7,0 4.9,1.4 4.9,3.1 0,1.7 -2.2,3.1 -4.9,3.1 l 0,0 z" />
			<path fill="#bababa" d="m 75.0,176.6 c -11.4,0 -20.6,-9.2 -20.6,-20.6 0,-11.4 9.2,-20.6 20.6,-20.6 11.4,0 20.6,9.2 20.6,20.6 0,11.4 -9.2,20.6 -20.6,20.6 l 0,0 z m -0.3,-33.6 c -7,0 -12.7,5.7 -12.7,12.7 0,7 5.7,12.7 12.7,12.7 7,0 12.7,-5.7 12.7,-12.7 0,-7 -5.6,-12.7 -12.7,-12.7 l 0,0 z" />
			<path fill="#bababa" d="m 75.3,-10.0 c 2,0 3.7,1.7 3.7,3.7 v 135 c 0,2 -1.7,3.7 -3.7,3.7 -2,0 -3.7,-1.7 -3.7,-3.7 V 45 c 0,-2 1.6,-3.7 3.7,-3.7 l 0,0 z" />
			<symbol id="knit">
				<path fill="#a0a0a0" d="m 4.5,0 c 2.5,0 4.5,2 4.5,4.5 v 11.6 c 0,2.5 -2,4.5 -4.5,4.5 -2.5,0 -4.5,-2 -4.5,-4.5 v -11.6 c 0,-2.5 2,-4.5 4.5,-4.5 l 0,0 z" />
			</symbol>
			<use xlink:href="#knit" x="66.5" y="127.1" />
			<use xlink:href="#knit" x="75.5" y="127.1" />
		</symbol>
	</defs>
</svg>