<?xml version="1.0" encoding="UTF-8" standalone="no"?>
<!-- Created with Inkscape (http://www.inkscape.org/) -->

<svg
   xmlns:dc="http://purl.org/dc/elements/1.1/"
   xmlns:cc="http://creativecommons.org/ns#"
   xmlns:rdf="http://www.w3.org/1999/02/22-rdf-syntax-ns#"
   xmlns:svg="http://www.w3.org/2000/svg"
   xmlns="http://www.w3.org/2000/svg"
   xmlns:sodipodi="http://sodipodi.sourceforge.net/DTD/sodipodi-0.dtd"
   xmlns:inkscape="http://www.inkscape.org/namespaces/inkscape"
   width="130"
   height="50"
   id="svg3006"
   version="1.1"
   inkscape:version="0.48.4 r9939"
   sodipodi:docname="新文件 2">
  <defs
     id="defs3008" />
  <sodipodi:namedview
     id="base"
     pagecolor="#ffffff"
     bordercolor="#666666"
     borderopacity="1.0"
     inkscape:pageopacity="0.0"
     inkscape:pageshadow="2"
     inkscape:zoom="2.8"
     inkscape:cx="107.85714"
     inkscape:cy="-0.86666458"
     inkscape:document-units="px"
     inkscape:current-layer="layer1"
     showgrid="false"
     inkscape:window-width="1920"
     inkscape:window-height="1018"
     inkscape:window-x="0"
     inkscape:window-y="27"
     inkscape:window-maximized="1" />
  <metadata
     id="metadata3011">
    <rdf:RDF>
      <cc:Work
         rdf:about="">
        <dc:format>image/svg+xml</dc:format>
        <dc:type
           rdf:resource="http://purl.org/dc/dcmitype/StillImage" />
        <dc:title></dc:title>
      </cc:Work>
    </rdf:RDF>
  </metadata>
  <g
     inkscape:label="Layer 1"
     inkscape:groupmode="layer"
     id="layer1"
     transform="translate(0,-1002.3622)">
    <path
       style="fill:#00aae2;fill-rule:evenodd"
       inkscape:connector-curvature="0"
       clip-rule="evenodd"
       d="m 104.8585,1010.5422 c 8.051,0 14.771,5.67 16.381,13.24 h 6.35 c -1.68,-11.04 -11.221,-19.5 -22.73,-19.5 -12.699998,0 -23.000002,10.3 -23.000002,23 0,12.7 10.300004,23 23.000002,23 11.51,0 21.051,-8.46 22.73,-19.5 h -6.35 c -1.61,7.57 -8.33,13.24 -16.381,13.24 -9.249998,0 -16.740002,-7.49 -16.740002,-16.74 0,-9.25 7.490004,-16.74 16.740002,-16.74 z"
       id="path3" />
    <path
       style="fill:#dcb732;fill-rule:evenodd"
       inkscape:connector-curvature="0"
       clip-rule="evenodd"
       d="m 25.410498,1009.9912 c 9.25,0 16.74,7.49 16.74,16.74 0,9.25 -7.49,16.74 -16.74,16.74 -9.25,0 -16.74,-7.49 -16.74,-16.74 0,-9.25 7.49,-16.74 16.74,-16.74 z m 0,-6.26 c 12.7,0 23,10.3 23,23 0,12.7 -10.3,23 -23,23 -12.7,0 -23,-10.3 -23,-23 0,-12.7 10.3,-23 23,-23 z"
       id="path5" />
    <path
       style="fill:#c73059;fill-rule:evenodd"
       inkscape:connector-curvature="0"
       clip-rule="evenodd"
       d="m 65.149498,1044.7332 c 9.25,0 16.74,-7.49 16.74,-16.74 0,-9.25 -7.49,-16.74 -16.74,-16.74 v -6.26 c 12.7,0 23,10.3 23,23 0,12.7 -10.3,23 -23,23 v -6.26 z"
       id="path7" />
    <path
       style="fill:#4bab49"
       inkscape:connector-curvature="0"
       d="m 42.185498,1026.7312 h -0.034 c 0,9.25 -7.49,16.74 -16.74,16.74 -9.25,0 -16.74,-7.49 -16.74,-16.74 h -6.26 c 0,12.7 10.3,23 23,23 12.277,0 22.309,-9.625 22.964,-21.739 h 0.034 c 0,-8.864 6.884,-16.094 15.598,-16.683 v -6.262 c -11.748,0.58 -21.188,9.951 -21.822,21.684 z"
       id="path9" />
  </g>
</svg>
