<svg xmlns="http://www.w3.org/2000/svg" width="150" height="150"><g><g><path fill="#9c3" d="M5.501 48.59l65.027 47.453v48.166l-65.027-47.451z"/><path fill="#86b32d" d="M144.632 53.433l-74.255 42.403v48.332l74.255-42.568z"/><path fill="#a8db43" d="M79.357 5.791l65.182 47.823-74.27 42.416-64.9-47.372z"/><path d="M25.471 41.795v9h.023c.26 4.381 6.548 7.89 14.286 7.89 7.738 0 14.026-3.509 14.286-7.89h.023v-9h-28.618z" fill="#9c3"/><path d="M59.471 65.796v9h.023c.26 4.381 6.548 7.891 14.286 7.891 7.739 0 14.026-3.51 14.286-7.891h.023v-9h-28.618z" fill="#9c3"/><path d="M96.471 43.796v9h.023c.26 4.381 6.547 7.89 14.286 7.89 7.737 0 14.026-3.509 14.286-7.89h.023v-9h-28.618z" fill="#9c3"/></g><path d="M62.471 19.795v9h.024c.259 4.381 6.547 7.891 14.286 7.891 7.737 0 14.026-3.509 14.286-7.891h.023v-9h-28.619z" fill="#9c3"/><path d="M80.421 19.795v16.605c5.979-.897 10.429-3.939 10.646-7.606h.023v-9l-10.669.001z" fill="#86b331"/><path d="M43.421 41.937v16.605c5.979-.897 10.429-3.939 10.646-7.606h.023v-9l-10.669.001z" fill="#86b331"/><path d="M114.421 43.796v16.605c5.979-.897 10.429-3.939 10.646-7.606h.023v-9l-10.669.001z" fill="#86b331"/><path d="M77.421 65.795v16.605c5.979-.896 10.429-3.939 10.646-7.605h.023v-9h-10.669z" fill="#86b331"/><path d="M76.791 10.799c7.898 0 14.3 4.027 14.3 8.996 0 4.968-6.4 8.995-14.3 8.995-7.898 0-14.301-4.027-14.301-8.995.001-4.969 6.403-8.996 14.301-8.996z" fill="#b8e562"/><path d="M110.791 34.799c7.898 0 14.3 4.027 14.3 8.995 0 4.969-6.4 8.996-14.3 8.996-7.898 0-14.302-4.027-14.302-8.996.001-4.967 6.404-8.995 14.302-8.995z" fill="#b8e562"/><path d="M39.79 32.799c7.898 0 14.301 4.029 14.301 8.996 0 4.967-6.402 8.995-14.301 8.995-7.897 0-14.299-4.027-14.299-8.995 0-4.968 6.401-8.996 14.299-8.996z" fill="#b7e758"/><path d="M73.792 56.799c7.898 0 14.303 4.027 14.303 8.996 0 4.967-6.404 8.995-14.303 8.995-7.899 0-14.301-4.027-14.301-8.995 0-4.969 6.402-8.996 14.301-8.996z" fill="#b8e562"/></g></svg>