<svg xmlns="http://www.w3.org/2000/svg" width="150" height="150"><g><g><path fill="#be9bd8" d="M5.501 48.59l65.027 47.453v48.166l-65.027-47.451z"/><path fill="#997baf" d="M144.632 53.434l-74.255 42.402v48.332l74.255-42.568z"/><path fill="#cda8e8" d="M79.357 5.791l65.182 47.822-74.27 42.416-64.9-47.371z"/><path d="M25.471 41.795v9h.023c.26 4.381 6.548 7.891 14.286 7.891 7.738 0 14.026-3.51 14.286-7.891h.023v-9h-28.618z" fill="#be9bd8"/><path d="M59.471 65.795v9h.023c.26 4.381 6.548 7.891 14.286 7.891 7.739 0 14.026-3.51 14.286-7.891h.023v-9h-28.618z" fill="#be9bd8"/><path d="M96.471 43.795v9h.023c.26 4.381 6.547 7.891 14.286 7.891 7.737 0 14.026-3.51 14.286-7.891h.023v-9h-28.618z" fill="#be9bd8"/></g><path d="M62.471 19.795v9h.024c.259 4.381 6.547 7.891 14.286 7.891 7.737 0 14.026-3.51 14.286-7.891h.023v-9h-28.619z" fill="#be9bd8"/><path d="M80.421 19.795v16.605c5.979-.896 10.429-3.939 10.646-7.605h.023v-9h-10.669z" fill="#997baf"/><path d="M43.421 41.938v16.605c5.979-.898 10.429-3.939 10.646-7.607h.023v-8.998h-10.669z" fill="#997baf"/><path d="M114.421 43.797v16.604c5.979-.896 10.429-3.938 10.646-7.605h.023v-8.998h-10.669v-.001z" fill="#997baf"/><path d="M77.421 65.795v16.604c5.979-.895 10.429-3.938 10.646-7.604h.023v-9h-10.669z" fill="#997baf"/><path d="M76.791 10.799c7.898 0 14.3 4.027 14.3 8.996s-6.4 8.994-14.3 8.994c-7.898 0-14.301-4.025-14.301-8.994.001-4.969 6.403-8.996 14.301-8.996z" fill="#d9b7f2"/><path d="M110.791 34.799c7.898 0 14.3 4.027 14.3 8.996s-6.4 8.996-14.3 8.996c-7.898 0-14.302-4.027-14.302-8.996.001-4.969 6.404-8.996 14.302-8.996z" fill="#d9b7f2"/><path d="M39.79 32.799c7.898 0 14.301 4.029 14.301 8.996 0 4.967-6.402 8.994-14.301 8.994-7.897 0-14.299-4.027-14.299-8.994s6.401-8.996 14.299-8.996z" fill="#d9b7f2"/><path d="M73.792 56.799c7.898 0 14.303 4.027 14.303 8.996s-6.404 8.996-14.303 8.996c-7.899 0-14.301-4.027-14.301-8.996s6.402-8.996 14.301-8.996z" fill="#d9b7f2"/></g></svg>